<mxfile host="app.diagrams.net" modified="2020-10-26T10:21:18.774Z" agent="5.0 (Windows NT 10.0; Win64; x64) AppleWebKit/537.36 (KHTML, like Gecko) Brave Chrome/83.0.4103.116 Safari/537.36" etag="bV9ymbVKmLkQPxRDIt66" version="13.8.2" type="github">
  <diagram id="o1bUBxP76E1PaFW4HusO" name="Page-1">
    <mxGraphModel dx="870" dy="1764" grid="1" gridSize="10" guides="1" tooltips="1" connect="1" arrows="1" fold="1" page="1" pageScale="1" pageWidth="827" pageHeight="1169" math="0" shadow="0">
      <root>
        <mxCell id="0" />
        <mxCell id="1" parent="0" />
        <mxCell id="x8haxsaXMcJianoUkE44-1" value="" style="endArrow=none;dashed=1;html=1;dashPattern=1 3;strokeWidth=2;" edge="1" parent="1">
          <mxGeometry width="50" height="50" relative="1" as="geometry">
            <mxPoint x="400" y="550" as="sourcePoint" />
            <mxPoint x="400" y="10" as="targetPoint" />
          </mxGeometry>
        </mxCell>
        <mxCell id="x8haxsaXMcJianoUkE44-2" value="User" style="text;html=1;align=center;verticalAlign=middle;resizable=0;points=[];autosize=1;" vertex="1" parent="1">
          <mxGeometry x="300" y="-30" width="40" height="20" as="geometry" />
        </mxCell>
        <mxCell id="x8haxsaXMcJianoUkE44-3" value="" style="endArrow=classic;html=1;exitX=0.5;exitY=1;exitDx=0;exitDy=0;exitPerimeter=0;entryX=0.5;entryY=0;entryDx=0;entryDy=0;" edge="1" parent="1" source="x8haxsaXMcJianoUkE44-4" target="x8haxsaXMcJianoUkE44-8">
          <mxGeometry width="50" height="50" relative="1" as="geometry">
            <mxPoint x="316" y="40" as="sourcePoint" />
            <mxPoint x="316" y="70" as="targetPoint" />
          </mxGeometry>
        </mxCell>
        <mxCell id="x8haxsaXMcJianoUkE44-4" value="" style="verticalLabelPosition=bottom;verticalAlign=top;html=1;shape=mxgraph.flowchart.on-page_reference;fillColor=#000000;" vertex="1" parent="1">
          <mxGeometry x="299" width="34" height="30" as="geometry" />
        </mxCell>
        <mxCell id="x8haxsaXMcJianoUkE44-5" value="System" style="text;html=1;align=center;verticalAlign=middle;resizable=0;points=[];autosize=1;" vertex="1" parent="1">
          <mxGeometry x="480" y="-20" width="60" height="20" as="geometry" />
        </mxCell>
        <mxCell id="x8haxsaXMcJianoUkE44-6" value="" style="endArrow=none;dashed=1;html=1;dashPattern=1 3;strokeWidth=2;" edge="1" parent="1">
          <mxGeometry width="50" height="50" relative="1" as="geometry">
            <mxPoint x="630" y="550" as="sourcePoint" />
            <mxPoint x="630" y="10" as="targetPoint" />
          </mxGeometry>
        </mxCell>
        <mxCell id="x8haxsaXMcJianoUkE44-7" value="UI" style="text;html=1;align=center;verticalAlign=middle;resizable=0;points=[];autosize=1;" vertex="1" parent="1">
          <mxGeometry x="705" y="-20" width="30" height="20" as="geometry" />
        </mxCell>
        <mxCell id="x8haxsaXMcJianoUkE44-8" value="Open Waterbalance" style="rounded=1;whiteSpace=wrap;html=1;" vertex="1" parent="1">
          <mxGeometry x="263" y="64" width="106" height="30" as="geometry" />
        </mxCell>
        <mxCell id="x8haxsaXMcJianoUkE44-9" value="" style="endArrow=classic;html=1;exitX=1;exitY=0.5;exitDx=0;exitDy=0;" edge="1" parent="1" source="x8haxsaXMcJianoUkE44-15">
          <mxGeometry width="50" height="50" relative="1" as="geometry">
            <mxPoint x="390" y="270" as="sourcePoint" />
            <mxPoint x="690" y="80" as="targetPoint" />
          </mxGeometry>
        </mxCell>
        <mxCell id="x8haxsaXMcJianoUkE44-10" value="Show Dialog&amp;nbsp; Choose Water Amount" style="rounded=1;whiteSpace=wrap;html=1;" vertex="1" parent="1">
          <mxGeometry x="690" y="190" width="110" height="40" as="geometry" />
        </mxCell>
        <mxCell id="x8haxsaXMcJianoUkE44-11" value="" style="ellipse;html=1;shape=endState;fillColor=#000000;strokeColor=#ff0000;" vertex="1" parent="1">
          <mxGeometry x="820" y="370" width="30" height="30" as="geometry" />
        </mxCell>
        <mxCell id="x8haxsaXMcJianoUkE44-12" style="edgeStyle=orthogonalEdgeStyle;rounded=0;orthogonalLoop=1;jettySize=auto;html=1;entryX=0;entryY=0.5;entryDx=0;entryDy=0;" edge="1" parent="1" source="x8haxsaXMcJianoUkE44-13" target="x8haxsaXMcJianoUkE44-8">
          <mxGeometry relative="1" as="geometry" />
        </mxCell>
        <mxCell id="x8haxsaXMcJianoUkE44-13" value="Store current Waterbalance" style="rounded=1;whiteSpace=wrap;html=1;" vertex="1" parent="1">
          <mxGeometry x="455" y="265" width="110" height="30" as="geometry" />
        </mxCell>
        <mxCell id="x8haxsaXMcJianoUkE44-14" value="" style="endArrow=classic;html=1;exitX=0.5;exitY=1;exitDx=0;exitDy=0;entryX=1;entryY=0.5;entryDx=0;entryDy=0;" edge="1" parent="1" source="x8haxsaXMcJianoUkE44-10" target="x8haxsaXMcJianoUkE44-13">
          <mxGeometry width="50" height="50" relative="1" as="geometry">
            <mxPoint x="390" y="260" as="sourcePoint" />
            <mxPoint x="560" y="170" as="targetPoint" />
            <Array as="points">
              <mxPoint x="745" y="280" />
            </Array>
          </mxGeometry>
        </mxCell>
        <mxCell id="x8haxsaXMcJianoUkE44-15" value="Load actual Waterbalance from LocalStorage" style="rounded=1;whiteSpace=wrap;html=1;" vertex="1" parent="1">
          <mxGeometry x="480" y="54" width="106" height="50" as="geometry" />
        </mxCell>
        <mxCell id="x8haxsaXMcJianoUkE44-16" value="" style="endArrow=classic;html=1;exitX=1;exitY=0.5;exitDx=0;exitDy=0;" edge="1" parent="1" source="x8haxsaXMcJianoUkE44-8" target="x8haxsaXMcJianoUkE44-15">
          <mxGeometry width="50" height="50" relative="1" as="geometry">
            <mxPoint x="369" y="80" as="sourcePoint" />
            <mxPoint x="690" y="80" as="targetPoint" />
          </mxGeometry>
        </mxCell>
        <mxCell id="x8haxsaXMcJianoUkE44-17" style="edgeStyle=orthogonalEdgeStyle;rounded=0;orthogonalLoop=1;jettySize=auto;html=1;entryX=0.5;entryY=0;entryDx=0;entryDy=0;" edge="1" parent="1" source="x8haxsaXMcJianoUkE44-18" target="x8haxsaXMcJianoUkE44-11">
          <mxGeometry relative="1" as="geometry" />
        </mxCell>
        <mxCell id="x8haxsaXMcJianoUkE44-18" value="Set waterlevel" style="rounded=1;whiteSpace=wrap;html=1;" vertex="1" parent="1">
          <mxGeometry x="690" y="70" width="106" height="20" as="geometry" />
        </mxCell>
        <mxCell id="x8haxsaXMcJianoUkE44-19" style="edgeStyle=orthogonalEdgeStyle;rounded=0;orthogonalLoop=1;jettySize=auto;html=1;entryX=0;entryY=0.5;entryDx=0;entryDy=0;" edge="1" parent="1" source="x8haxsaXMcJianoUkE44-20" target="x8haxsaXMcJianoUkE44-10">
          <mxGeometry relative="1" as="geometry">
            <Array as="points">
              <mxPoint x="320" y="210" />
            </Array>
          </mxGeometry>
        </mxCell>
        <mxCell id="x8haxsaXMcJianoUkE44-20" value="Add Water Consumption" style="rounded=1;whiteSpace=wrap;html=1;" vertex="1" parent="1">
          <mxGeometry x="263" y="115" width="106" height="30" as="geometry" />
        </mxCell>
        <mxCell id="x8haxsaXMcJianoUkE44-21" value="" style="endArrow=classic;html=1;exitX=0.425;exitY=1.05;exitDx=0;exitDy=0;exitPerimeter=0;" edge="1" parent="1" source="x8haxsaXMcJianoUkE44-18">
          <mxGeometry width="50" height="50" relative="1" as="geometry">
            <mxPoint x="735" y="100" as="sourcePoint" />
            <mxPoint x="370" y="130" as="targetPoint" />
            <Array as="points">
              <mxPoint x="735" y="130" />
            </Array>
          </mxGeometry>
        </mxCell>
      </root>
    </mxGraphModel>
  </diagram>
</mxfile>
